<svg width="13" height="7" viewBox="0 0 13 7" fill="none" xmlns="http://www.w3.org/2000/svg">
<path d="M9.15725 6.31284H7.37693V5.12596H9.15725C9.62943 5.12596 10.0823 4.93839 10.4161 4.60451C10.75 4.27064 10.9376 3.8178 10.9376 3.34563C10.9376 2.87346 10.75 2.42062 10.4161 2.08675C10.0823 1.75287 9.62943 1.5653 9.15725 1.5653H7.37693V0.378418H9.15725C9.94421 0.378418 10.6989 0.691034 11.2554 1.24749C11.8119 1.80395 12.1245 2.55868 12.1245 3.34563C12.1245 4.13258 11.8119 4.88731 11.2554 5.44377C10.6989 6.00023 9.94421 6.31284 9.15725 6.31284ZM5.00316 6.31284H3.22283C2.43587 6.31284 1.68115 6.00023 1.12469 5.44377C0.568231 4.88731 0.255615 4.13258 0.255615 3.34563C0.255615 2.55868 0.568231 1.80395 1.12469 1.24749C1.68115 0.691034 2.43587 0.378418 3.22283 0.378418H5.00316V1.5653H3.22283C2.75066 1.5653 2.29782 1.75287 1.96395 2.08675C1.63007 2.42062 1.4425 2.87346 1.4425 3.34563C1.4425 3.8178 1.63007 4.27064 1.96395 4.60451C2.29782 4.93839 2.75066 5.12596 3.22283 5.12596H5.00316V6.31284ZM9.15725 3.93907H3.22283V2.75219H9.15725V3.93907Z" fill="#8661D1"/>
</svg>
