<svg width="11" height="11" viewBox="0 0 11 11" fill="none" xmlns="http://www.w3.org/2000/svg">
<path d="M7.82339 6.59214C7.86182 6.27512 7.89064 5.9581 7.89064 5.63147C7.89064 5.30485 7.86182 4.98783 7.82339 4.6708H9.44692C9.52378 4.97822 9.57181 5.30004 9.57181 5.63147C9.57181 5.96291 9.52378 6.28473 9.44692 6.59214H7.82339ZM6.9732 9.26281C7.2614 8.72963 7.48235 8.15323 7.63606 7.55281H9.05305C8.58769 8.35415 7.84938 8.96115 6.9732 9.26281ZM6.85311 6.59214H4.60515C4.55711 6.27512 4.52829 5.9581 4.52829 5.63147C4.52829 5.30485 4.55711 4.98302 4.60515 4.6708H6.85311C6.89634 4.98302 6.92997 5.30485 6.92997 5.63147C6.92997 5.9581 6.89634 6.27512 6.85311 6.59214ZM5.72913 9.45494C5.33045 8.87854 5.00863 8.23969 4.81169 7.55281H6.64657C6.44963 8.23969 6.12781 8.87854 5.72913 9.45494ZM3.80779 3.71013H2.40521C2.86578 2.90664 3.60355 2.29866 4.48026 2.00014C4.19206 2.53331 3.97591 3.10972 3.80779 3.71013ZM2.40521 7.55281H3.80779C3.97591 8.15323 4.19206 8.72963 4.48026 9.26281C3.60539 8.961 2.86866 8.35388 2.40521 7.55281ZM2.01134 6.59214C1.93448 6.28473 1.88645 5.96291 1.88645 5.63147C1.88645 5.30004 1.93448 4.97822 2.01134 4.6708H3.63487C3.59644 4.98783 3.56762 5.30485 3.56762 5.63147C3.56762 5.9581 3.59644 6.27512 3.63487 6.59214H2.01134ZM5.72913 1.80321C6.12781 2.37961 6.44963 3.02326 6.64657 3.71013H4.81169C5.00863 3.02326 5.33045 2.37961 5.72913 1.80321ZM9.05305 3.71013H7.63606C7.48573 3.11522 7.26312 2.54095 6.9732 2.00014C7.85701 2.30275 8.59193 2.91278 9.05305 3.71013ZM5.72913 0.828125C3.07288 0.828125 0.925781 2.98963 0.925781 5.63147C0.925781 6.9054 1.43185 8.12715 2.33265 9.02796C2.77868 9.47399 3.3082 9.8278 3.89097 10.0692C4.47374 10.3106 5.09835 10.4348 5.72913 10.4348C7.00306 10.4348 8.22481 9.92876 9.12561 9.02796C10.0264 8.12715 10.5325 6.9054 10.5325 5.63147C10.5325 5.00069 10.4082 4.37608 10.1668 3.79331C9.92546 3.21054 9.57164 2.68103 9.12561 2.23499C8.67958 1.78896 8.15006 1.43515 7.56729 1.19376C6.98452 0.952367 6.35992 0.828125 5.72913 0.828125Z" fill="#8661D1"/>
</svg>
